<svg width="109" height="35" viewBox="0 0 109 35" fill="none" xmlns="http://www.w3.org/2000/svg">
<path d="M6.44123 29.066V10.2723L8.66278 11.4072V29.079L6.44123 29.066ZM14.0251 33.1516V14.5071L16.2467 14.546V33.1516H14.0251ZM0 25.6808V8.5927L2.23432 7.5097V25.1815L0 25.6808ZM14.713 16.5628L0.274502 9.53304L2.8727 8.32682L15.6769 14.5265L14.7194 16.5628H14.713ZM29.1116 10.5253L14.2486 2.06225L15.1359 0L30.1984 8.55379L29.118 10.5253H29.1116ZM15.2125 34.1633L0 25.7197L1.07886 23.7467L16.1797 32.1335L15.2125 34.1633ZM1.73 10.1945L0 8.5927L15.1359 0.0389104L16.1924 2.06063L1.73 10.1945ZM28.0056 25.5965V9.33848L30.2272 8.56028V25.603L28.0056 25.5965ZM15.2796 25.7279L14.2582 23.724L28.5929 16.1883L29.6143 18.1938L15.2796 25.7343V25.7279ZM14.8008 16.8887L13.8432 14.8524L28.5259 7.6848L29.4835 9.7211L14.8008 16.8887ZM15.2141 34.1568L14.2422 32.1254L28.7764 23.8131L30.2288 25.5576L15.2141 34.1503V34.1568Z" fill="url(#paint0_linear_1_81)"/>
<path d="M6.44123 29.066V10.2723L8.66278 11.4072V29.079L6.44123 29.066ZM14.0251 33.1516V14.5071L16.2467 14.546V33.1516H14.0251ZM0 25.6808V8.5927L2.23432 7.5097V25.1815L0 25.6808ZM14.713 16.5628L0.274502 9.53304L2.8727 8.32682L15.6769 14.5265L14.7194 16.5628H14.713ZM29.1116 10.5253L14.2486 2.06225L15.1359 0L30.1984 8.55379L29.118 10.5253H29.1116ZM15.2125 34.1633L0 25.7197L1.07886 23.7467L16.1797 32.1335L15.2125 34.1633ZM1.73 10.1945L0 8.5927L15.1359 0.0389104L16.1924 2.06063L1.73 10.1945ZM28.0056 25.5965V9.33848L30.2272 8.56028V25.603L28.0056 25.5965ZM15.2796 25.7279L14.2582 23.724L28.5929 16.1883L29.6143 18.1938L15.2796 25.7343V25.7279ZM14.8008 16.8887L13.8432 14.8524L28.5259 7.6848L29.4835 9.7211L14.8008 16.8887ZM15.2141 34.1568L14.2422 32.1254L28.7764 23.8131L30.2288 25.5576L15.2141 34.1503V34.1568Z" fill="url(#paint1_linear_1_81)" fill-opacity="0.2"/>
<path d="M42 0.28H52.3V2.92H48.52V14.28H45.76V2.92H42V0.28Z" fill="white"/>
<path d="M62.3008 7.02C63.5274 7.72667 64.1408 8.79333 64.1408 10.22C64.1408 11.4067 63.7208 12.38 62.8808 13.14C62.0408 13.9 61.0074 14.28 59.7808 14.28H53.8408V0.28H59.3608C60.5474 0.28 61.5541 0.653333 62.3808 1.4C63.2074 2.14667 63.6208 3.08667 63.6208 4.22C63.6208 5.38 63.1808 6.31333 62.3008 7.02ZM59.3608 2.86H56.6008V5.94H59.3608C59.7874 5.94 60.1408 5.79333 60.4208 5.5C60.7141 5.20667 60.8608 4.84 60.8608 4.4C60.8608 3.96 60.7208 3.59333 60.4408 3.3C60.1608 3.00667 59.8008 2.86 59.3608 2.86ZM56.6008 11.7H59.7808C60.2474 11.7 60.6341 11.5467 60.9408 11.24C61.2474 10.92 61.4008 10.52 61.4008 10.04C61.4008 9.57333 61.2474 9.18667 60.9408 8.88C60.6341 8.56 60.2474 8.4 59.7808 8.4H56.6008V11.7Z" fill="white"/>
<path d="M72.5902 14.56C70.4968 14.56 68.7568 13.86 67.3702 12.46C65.9968 11.0733 65.3102 9.34667 65.3102 7.28C65.3102 5.2 65.9968 3.47333 67.3702 2.1C68.7568 0.7 70.4968 0 72.5902 0C73.8568 0 75.0235 0.3 76.0902 0.9C77.1702 1.48667 78.0102 2.28667 78.6102 3.3L76.2302 4.68C75.8835 4.05333 75.3902 3.56667 74.7502 3.22C74.1102 2.86 73.3902 2.68 72.5902 2.68C71.2302 2.68 70.1302 3.10667 69.2902 3.96C68.4635 4.82667 68.0502 5.93333 68.0502 7.28C68.0502 8.61333 68.4635 9.71333 69.2902 10.58C70.1302 11.4333 71.2302 11.86 72.5902 11.86C73.3902 11.86 74.1102 11.6867 74.7502 11.34C75.4035 10.98 75.8968 10.4933 76.2302 9.88L78.6102 11.26C78.0102 12.2733 77.1702 13.08 76.0902 13.68C75.0235 14.2667 73.8568 14.56 72.5902 14.56Z" fill="white"/>
<path d="M86.8089 14.56C84.7156 14.56 82.9756 13.86 81.5889 12.46C80.2156 11.0733 79.5289 9.34667 79.5289 7.28C79.5289 5.2 80.2156 3.47333 81.5889 2.1C82.9756 0.7 84.7156 0 86.8089 0C88.0756 0 89.2422 0.3 90.3089 0.9C91.3889 1.48667 92.2289 2.28667 92.8289 3.3L90.4489 4.68C90.1022 4.05333 89.6089 3.56667 88.9689 3.22C88.3289 2.86 87.6089 2.68 86.8089 2.68C85.4489 2.68 84.3489 3.10667 83.5089 3.96C82.6822 4.82667 82.2689 5.93333 82.2689 7.28C82.2689 8.61333 82.6822 9.71333 83.5089 10.58C84.3489 11.4333 85.4489 11.86 86.8089 11.86C87.6089 11.86 88.3289 11.6867 88.9689 11.34C89.6222 10.98 90.1156 10.4933 90.4489 9.88L92.8289 11.26C92.2289 12.2733 91.3889 13.08 90.3089 13.68C89.2422 14.2667 88.0756 14.56 86.8089 14.56Z" fill="white"/>
<path d="M45.1 26.56C45.1 25.6267 45.3067 24.82 45.72 24.14C46.1467 23.46 46.7 22.94 47.38 22.58C48.06 22.2067 48.8 22.02 49.6 22.02C50.2667 22.02 50.86 22.1067 51.38 22.28C51.9 22.4534 52.3667 22.6867 52.78 22.98C53.2067 23.2734 53.5733 23.5934 53.88 23.94V20.72C53.3067 20.2667 52.68 19.9134 52 19.66C51.3333 19.4067 50.4867 19.28 49.46 19.28C48.3933 19.28 47.4 19.4534 46.48 19.8C45.5733 20.1467 44.78 20.6467 44.1 21.3C43.4333 21.9534 42.9133 22.7267 42.54 23.62C42.18 24.5 42 25.48 42 26.56C42 27.64 42.18 28.6267 42.54 29.52C42.9133 30.4 43.4333 31.1667 44.1 31.82C44.78 32.4734 45.5733 32.9734 46.48 33.32C47.4 33.6667 48.3933 33.84 49.46 33.84C50.4867 33.84 51.3333 33.7134 52 33.46C52.68 33.2067 53.3067 32.8534 53.88 32.4V29.18C53.5733 29.5267 53.2067 29.8467 52.78 30.14C52.3667 30.4334 51.9 30.6667 51.38 30.84C50.86 31.0134 50.2667 31.1 49.6 31.1C48.8 31.1 48.06 30.92 47.38 30.56C46.7 30.1867 46.1467 29.66 45.72 28.98C45.3067 28.2867 45.1 27.48 45.1 26.56Z" fill="url(#paint2_linear_1_81)"/>
<path d="M45.1 26.56C45.1 25.6267 45.3067 24.82 45.72 24.14C46.1467 23.46 46.7 22.94 47.38 22.58C48.06 22.2067 48.8 22.02 49.6 22.02C50.2667 22.02 50.86 22.1067 51.38 22.28C51.9 22.4534 52.3667 22.6867 52.78 22.98C53.2067 23.2734 53.5733 23.5934 53.88 23.94V20.72C53.3067 20.2667 52.68 19.9134 52 19.66C51.3333 19.4067 50.4867 19.28 49.46 19.28C48.3933 19.28 47.4 19.4534 46.48 19.8C45.5733 20.1467 44.78 20.6467 44.1 21.3C43.4333 21.9534 42.9133 22.7267 42.54 23.62C42.18 24.5 42 25.48 42 26.56C42 27.64 42.18 28.6267 42.54 29.52C42.9133 30.4 43.4333 31.1667 44.1 31.82C44.78 32.4734 45.5733 32.9734 46.48 33.32C47.4 33.6667 48.3933 33.84 49.46 33.84C50.4867 33.84 51.3333 33.7134 52 33.46C52.68 33.2067 53.3067 32.8534 53.88 32.4V29.18C53.5733 29.5267 53.2067 29.8467 52.78 30.14C52.3667 30.4334 51.9 30.6667 51.38 30.84C50.86 31.0134 50.2667 31.1 49.6 31.1C48.8 31.1 48.06 30.92 47.38 30.56C46.7 30.1867 46.1467 29.66 45.72 28.98C45.3067 28.2867 45.1 27.48 45.1 26.56Z" fill="url(#paint3_linear_1_81)" fill-opacity="0.2"/>
<path d="M56.7258 19.56V33.56H65.1658V31.06H59.5858V19.56H56.7258Z" fill="url(#paint4_linear_1_81)"/>
<path d="M56.7258 19.56V33.56H65.1658V31.06H59.5858V19.56H56.7258Z" fill="url(#paint5_linear_1_81)" fill-opacity="0.2"/>
<path d="M68.4184 26.56C68.4184 25.6667 68.6051 24.8734 68.9784 24.18C69.3518 23.4867 69.8651 22.94 70.5184 22.54C71.1718 22.14 71.9318 21.94 72.7984 21.94C73.6784 21.94 74.4451 22.14 75.0984 22.54C75.7518 22.94 76.2584 23.4867 76.6184 24.18C76.9784 24.8734 77.1584 25.6667 77.1584 26.56C77.1584 27.4534 76.9718 28.2467 76.5984 28.94C76.2384 29.6334 75.7318 30.18 75.0784 30.58C74.4251 30.98 73.6651 31.18 72.7984 31.18C71.9318 31.18 71.1718 30.98 70.5184 30.58C69.8651 30.18 69.3518 29.6334 68.9784 28.94C68.6051 28.2467 68.4184 27.4534 68.4184 26.56ZM65.3984 26.56C65.3984 27.6134 65.5784 28.5934 65.9384 29.5C66.2984 30.3934 66.8118 31.1734 67.4784 31.84C68.1451 32.5067 68.9251 33.0267 69.8184 33.4C70.7251 33.76 71.7184 33.94 72.7984 33.94C73.8784 33.94 74.8651 33.76 75.7584 33.4C76.6651 33.0267 77.4451 32.5067 78.0984 31.84C78.7651 31.1734 79.2784 30.3934 79.6384 29.5C80.0118 28.5934 80.1984 27.6134 80.1984 26.56C80.1984 25.4934 80.0118 24.52 79.6384 23.64C79.2784 22.7467 78.7584 21.9734 78.0784 21.32C77.4118 20.6667 76.6318 20.1667 75.7384 19.82C74.8451 19.46 73.8651 19.28 72.7984 19.28C71.7451 19.28 70.7651 19.46 69.8584 19.82C68.9651 20.1667 68.1851 20.6667 67.5184 21.32C66.8518 21.9734 66.3318 22.7467 65.9584 23.64C65.5851 24.52 65.3984 25.4934 65.3984 26.56Z" fill="url(#paint6_linear_1_81)"/>
<path d="M68.4184 26.56C68.4184 25.6667 68.6051 24.8734 68.9784 24.18C69.3518 23.4867 69.8651 22.94 70.5184 22.54C71.1718 22.14 71.9318 21.94 72.7984 21.94C73.6784 21.94 74.4451 22.14 75.0984 22.54C75.7518 22.94 76.2584 23.4867 76.6184 24.18C76.9784 24.8734 77.1584 25.6667 77.1584 26.56C77.1584 27.4534 76.9718 28.2467 76.5984 28.94C76.2384 29.6334 75.7318 30.18 75.0784 30.58C74.4251 30.98 73.6651 31.18 72.7984 31.18C71.9318 31.18 71.1718 30.98 70.5184 30.58C69.8651 30.18 69.3518 29.6334 68.9784 28.94C68.6051 28.2467 68.4184 27.4534 68.4184 26.56ZM65.3984 26.56C65.3984 27.6134 65.5784 28.5934 65.9384 29.5C66.2984 30.3934 66.8118 31.1734 67.4784 31.84C68.1451 32.5067 68.9251 33.0267 69.8184 33.4C70.7251 33.76 71.7184 33.94 72.7984 33.94C73.8784 33.94 74.8651 33.76 75.7584 33.4C76.6651 33.0267 77.4451 32.5067 78.0984 31.84C78.7651 31.1734 79.2784 30.3934 79.6384 29.5C80.0118 28.5934 80.1984 27.6134 80.1984 26.56C80.1984 25.4934 80.0118 24.52 79.6384 23.64C79.2784 22.7467 78.7584 21.9734 78.0784 21.32C77.4118 20.6667 76.6318 20.1667 75.7384 19.82C74.8451 19.46 73.8651 19.28 72.7984 19.28C71.7451 19.28 70.7651 19.46 69.8584 19.82C68.9651 20.1667 68.1851 20.6667 67.5184 21.32C66.8518 21.9734 66.3318 22.7467 65.9584 23.64C65.5851 24.52 65.3984 25.4934 65.3984 26.56Z" fill="url(#paint7_linear_1_81)" fill-opacity="0.2"/>
<path d="M82.3094 19.56V28.96C82.3094 29.7867 82.4427 30.5134 82.7094 31.14C82.976 31.7667 83.3494 32.2934 83.8294 32.72C84.3094 33.1467 84.876 33.4667 85.5294 33.68C86.1827 33.9067 86.896 34.02 87.6694 34.02C88.4294 34.02 89.136 33.9067 89.7894 33.68C90.4427 33.4667 91.0094 33.1467 91.4894 32.72C91.9827 32.2934 92.3627 31.7667 92.6294 31.14C92.896 30.5134 93.0294 29.7867 93.0294 28.96V19.56H90.1694V28.78C90.1694 29.58 89.956 30.2267 89.5294 30.72C89.116 31.2 88.496 31.44 87.6694 31.44C86.8427 31.44 86.216 31.2 85.7894 30.72C85.376 30.2267 85.1694 29.58 85.1694 28.78V19.56H82.3094Z" fill="url(#paint8_linear_1_81)"/>
<path d="M82.3094 19.56V28.96C82.3094 29.7867 82.4427 30.5134 82.7094 31.14C82.976 31.7667 83.3494 32.2934 83.8294 32.72C84.3094 33.1467 84.876 33.4667 85.5294 33.68C86.1827 33.9067 86.896 34.02 87.6694 34.02C88.4294 34.02 89.136 33.9067 89.7894 33.68C90.4427 33.4667 91.0094 33.1467 91.4894 32.72C91.9827 32.2934 92.3627 31.7667 92.6294 31.14C92.896 30.5134 93.0294 29.7867 93.0294 28.96V19.56H90.1694V28.78C90.1694 29.58 89.956 30.2267 89.5294 30.72C89.116 31.2 88.496 31.44 87.6694 31.44C86.8427 31.44 86.216 31.2 85.7894 30.72C85.376 30.2267 85.1694 29.58 85.1694 28.78V19.56H82.3094Z" fill="url(#paint9_linear_1_81)" fill-opacity="0.2"/>
<path d="M95.9445 19.56V33.56H98.8645V19.56H95.9445ZM100.705 33.56C102.171 33.56 103.451 33.2734 104.545 32.7C105.651 32.1267 106.511 31.32 107.125 30.28C107.738 29.2267 108.045 27.9867 108.045 26.56C108.045 25.1334 107.738 23.9 107.125 22.86C106.511 21.8067 105.651 20.9934 104.545 20.42C103.451 19.8467 102.171 19.56 100.705 19.56H97.7845V22.16H100.605C101.218 22.16 101.798 22.2467 102.345 22.42C102.891 22.58 103.371 22.84 103.785 23.2C104.198 23.56 104.518 24.02 104.745 24.58C104.985 25.1267 105.105 25.7867 105.105 26.56C105.105 27.3334 104.985 28 104.745 28.56C104.518 29.1067 104.198 29.56 103.785 29.92C103.371 30.28 102.891 30.5467 102.345 30.72C101.798 30.88 101.218 30.96 100.605 30.96H97.7845V33.56H100.705Z" fill="url(#paint10_linear_1_81)"/>
<path d="M95.9445 19.56V33.56H98.8645V19.56H95.9445ZM100.705 33.56C102.171 33.56 103.451 33.2734 104.545 32.7C105.651 32.1267 106.511 31.32 107.125 30.28C107.738 29.2267 108.045 27.9867 108.045 26.56C108.045 25.1334 107.738 23.9 107.125 22.86C106.511 21.8067 105.651 20.9934 104.545 20.42C103.451 19.8467 102.171 19.56 100.705 19.56H97.7845V22.16H100.605C101.218 22.16 101.798 22.2467 102.345 22.42C102.891 22.58 103.371 22.84 103.785 23.2C104.198 23.56 104.518 24.02 104.745 24.58C104.985 25.1267 105.105 25.7867 105.105 26.56C105.105 27.3334 104.985 28 104.745 28.56C104.518 29.1067 104.198 29.56 103.785 29.92C103.371 30.28 102.891 30.5467 102.345 30.72C101.798 30.88 101.218 30.96 100.605 30.96H97.7845V33.56H100.705Z" fill="url(#paint11_linear_1_81)" fill-opacity="0.2"/>
<defs>
<linearGradient id="paint0_linear_1_81" x1="3.82426e-08" y1="4.7303" x2="31.7378" y2="7.97602" gradientUnits="userSpaceOnUse">
<stop stop-color="#A77EEE"/>
<stop offset="1" stop-color="#5F63F8"/>
</linearGradient>
<linearGradient id="paint1_linear_1_81" x1="15.1144" y1="0" x2="15.1144" y2="34.1633" gradientUnits="userSpaceOnUse">
<stop stop-color="white"/>
<stop offset="1" stop-color="white" stop-opacity="0"/>
</linearGradient>
<linearGradient id="paint2_linear_1_81" x1="42" y1="21.321" x2="97.2498" y2="49.9327" gradientUnits="userSpaceOnUse">
<stop stop-color="#A77EEE"/>
<stop offset="1" stop-color="#5F63F8"/>
</linearGradient>
<linearGradient id="paint3_linear_1_81" x1="75.0223" y1="19.28" x2="75.0223" y2="34.02" gradientUnits="userSpaceOnUse">
<stop stop-color="white"/>
<stop offset="1" stop-color="white" stop-opacity="0"/>
</linearGradient>
<linearGradient id="paint4_linear_1_81" x1="42" y1="21.321" x2="97.2498" y2="49.9327" gradientUnits="userSpaceOnUse">
<stop stop-color="#A77EEE"/>
<stop offset="1" stop-color="#5F63F8"/>
</linearGradient>
<linearGradient id="paint5_linear_1_81" x1="75.0223" y1="19.28" x2="75.0223" y2="34.02" gradientUnits="userSpaceOnUse">
<stop stop-color="white"/>
<stop offset="1" stop-color="white" stop-opacity="0"/>
</linearGradient>
<linearGradient id="paint6_linear_1_81" x1="42" y1="21.321" x2="97.2498" y2="49.9327" gradientUnits="userSpaceOnUse">
<stop stop-color="#A77EEE"/>
<stop offset="1" stop-color="#5F63F8"/>
</linearGradient>
<linearGradient id="paint7_linear_1_81" x1="75.0223" y1="19.28" x2="75.0223" y2="34.02" gradientUnits="userSpaceOnUse">
<stop stop-color="white"/>
<stop offset="1" stop-color="white" stop-opacity="0"/>
</linearGradient>
<linearGradient id="paint8_linear_1_81" x1="42" y1="21.321" x2="97.2498" y2="49.9327" gradientUnits="userSpaceOnUse">
<stop stop-color="#A77EEE"/>
<stop offset="1" stop-color="#5F63F8"/>
</linearGradient>
<linearGradient id="paint9_linear_1_81" x1="75.0223" y1="19.28" x2="75.0223" y2="34.02" gradientUnits="userSpaceOnUse">
<stop stop-color="white"/>
<stop offset="1" stop-color="white" stop-opacity="0"/>
</linearGradient>
<linearGradient id="paint10_linear_1_81" x1="42" y1="21.321" x2="97.2498" y2="49.9327" gradientUnits="userSpaceOnUse">
<stop stop-color="#A77EEE"/>
<stop offset="1" stop-color="#5F63F8"/>
</linearGradient>
<linearGradient id="paint11_linear_1_81" x1="75.0223" y1="19.28" x2="75.0223" y2="34.02" gradientUnits="userSpaceOnUse">
<stop stop-color="white"/>
<stop offset="1" stop-color="white" stop-opacity="0"/>
</linearGradient>
</defs>
</svg>